<?xml version="1.0" standalone="no"?>
<!DOCTYPE svg PUBLIC "-//W3C//DTD SVG 20010904//EN"
 "http://www.w3.org/TR/2001/REC-SVG-20010904/DTD/svg10.dtd">
<svg version="1.0" xmlns="http://www.w3.org/2000/svg"
 width="70.000000pt" height="70.000000pt" viewBox="0 0 567.000000 440.000000"
 preserveAspectRatio="xMidYMid meet">

<g transform="translate(0.000000,440.000000) scale(0.100000,-0.100000)"
fill="#000000" stroke="none">
<path d="M2215 2520 c-3 -5 -2 -10 4 -10 5 0 13 5 16 10 3 6 2 10 -4 10 -5 0
-13 -4 -16 -10z"/>
<path d="M3798 2523 c46 -5 54 -16 21 -34 -12 -6 -19 -7 -15 -1 3 5 -8 12 -27
14 l-32 3 3 -75 c1 -41 -1 -165 -5 -274 l-8 -199 -140 -43 c-77 -24 -143 -40
-147 -36 -4 4 -9 121 -11 260 -2 139 -8 257 -13 261 -5 5 -79 16 -164 25 -276
29 -334 37 -370 49 -19 6 -38 10 -42 9 -5 -1 -8 3 -8 9 0 6 -6 9 -14 6 -8 -3
-16 -2 -18 3 -2 5 -26 2 -55 -6 -38 -11 -57 -12 -72 -5 -11 6 -42 11 -70 11
-28 0 -51 5 -51 10 0 12 -40 13 -58 1 -9 -5 1 -10 30 -15 69 -11 161 -113 116
-128 -15 -5 -428 19 -476 27 -50 9 -52 32 -6 71 39 33 39 33 12 34 -15 0 -30
5 -33 10 -9 15 -19 12 -43 -10 -12 -12 -22 -18 -22 -14 0 3 -7 1 -15 -6 -9 -8
-100 -19 -240 -30 -125 -10 -229 -21 -232 -24 -4 -4 -7 -270 -7 -593 l-1 -587
34 -8 c18 -5 36 -7 39 -4 3 3 -3 34 -13 68 -26 92 -32 284 -10 368 41 159 127
276 248 335 63 31 89 37 207 50 251 27 338 29 410 11 227 -58 370 -254 370
-506 0 -193 -77 -355 -210 -440 -28 -18 -48 -35 -45 -38 2 -3 44 -11 92 -18
106 -15 303 -47 433 -69 l95 -17 90 52 c50 28 93 55 97 59 4 3 8 128 8 276 1
148 5 276 10 286 6 10 45 28 97 44 49 14 107 33 131 41 74 27 72 35 72 -241 0
-190 3 -245 13 -244 6 0 48 22 92 47 l80 47 3 571 2 571 -25 -3 c-22 -2 -24 0
-14 12 10 12 9 13 -5 8 -9 -3 -16 -1 -16 6 0 6 -4 9 -9 5 -5 -3 -12 -1 -16 5
-3 5 -25 9 -48 8 l-42 -1 43 -4z m-1654 -28 c3 -9 0 -15 -9 -15 -9 0 -12 6 -9
15 4 8 7 15 9 15 2 0 5 -7 9 -15z m953 -307 c32 -30 32 -102 1 -135 -46 -49
-118 -9 -118 67 0 75 68 115 117 68z"/>
<path d="M2418 2513 c7 -3 16 -2 19 1 4 3 -2 6 -13 5 -11 0 -14 -3 -6 -6z"/>
<path d="M2001 1959 c-109 -21 -196 -91 -254 -207 -48 -96 -61 -165 -54 -287
7 -153 59 -269 162 -364 69 -63 124 -84 220 -85 85 0 119 12 194 68 42 31 105
114 130 171 43 96 53 238 26 353 -15 62 -60 162 -97 215 -21 30 -104 94 -153
119 -39 20 -118 27 -174 17z m146 -180 c171 -83 219 -373 85 -521 -65 -72
-135 -92 -226 -67 -57 16 -137 100 -164 172 -30 79 -30 195 -1 273 51 136 188
200 306 143z"/>
</g>
</svg>
